<svg width="16" height="16" viewBox="0 0 16 16" fill="#959596" stroke-width="0" xmlns="http://www.w3.org/2000/svg">
    <path d="M11.2648 7.82579C11.583 7.56062 11.626 7.0877 11.3608 6.76949C11.0957 6.45128 10.6227 6.40829 10.3045 6.67346L11.2648 7.82579ZM8.133 9.45935L7.65286 10.0355C7.93099 10.2673 8.335 10.2673 8.61314 10.0355L8.133 9.45935ZM5.96147 6.67346C5.64326 6.40829 5.17034 6.45128 4.90516 6.76949C4.63999 7.0877 4.68298 7.56062 5.00119 7.82579L5.96147 6.67346ZM10.3045 6.67346L7.65286 8.88318L8.61314 10.0355L11.2648 7.82579L10.3045 6.67346ZM8.61314 8.88318L5.96147 6.67346L5.00119 7.82579L7.65286 10.0355L8.61314 8.88318ZM13.25 8C13.25 10.8995 10.8995 13.25 8 13.25V14.75C11.7279 14.75 14.75 11.7279 14.75 8H13.25ZM8 13.25C5.1005 13.25 2.75 10.8995 2.75 8H1.25C1.25 11.7279 4.27208 14.75 8 14.75V13.25ZM2.75 8C2.75 5.1005 5.1005 2.75 8 2.75V1.25C4.27208 1.25 1.25 4.27208 1.25 8H2.75ZM8 2.75C10.8995 2.75 13.25 5.1005 13.25 8H14.75C14.75 4.27208 11.7279 1.25 8 1.25V2.75Z"/>
</svg>
