<svg width="16" height="16" viewBox="0 0 16 16" fill="#0A0A0A" stroke-width="0" xmlns="http://www.w3.org/2000/svg">
    <path d="M8.22731 14C7.23283 14 6.34886 13.8672 5.57537 13.6017C4.80505 13.3393 4.1547 12.9518 3.62431 12.4392C3.09392 11.9298 2.6914 11.3076 2.41673 10.5728C2.14207 9.8379 2.00316 8.99807 2 8.05326C2.00316 7.13007 2.14365 6.29795 2.42147 5.55693C2.69929 4.81281 3.10497 4.17677 3.63852 3.64878C4.17206 3.11772 4.82399 2.71015 5.59432 2.42609C6.36464 2.14203 7.24073 2 8.22257 2C9.14759 2 9.96685 2.1374 10.6803 2.4122C11.397 2.68699 12.0016 3.06986 12.4941 3.56079C12.9897 4.04863 13.3639 4.61984 13.6164 5.27441C13.8721 5.9259 14 6.63296 14 7.3956C14 7.92358 13.959 8.42377 13.8769 8.89618C13.7948 9.3655 13.6543 9.78232 13.4554 10.1467C13.2597 10.511 12.9929 10.8012 12.6551 11.0174C12.3173 11.2304 11.8942 11.3462 11.386 11.3647C11.0671 11.3802 10.7877 11.3508 10.5478 11.2767C10.3078 11.2026 10.1137 11.0868 9.96527 10.9294C9.82005 10.7688 9.72849 10.5728 9.69061 10.3412H9.63378C9.56117 10.5264 9.42384 10.6963 9.22178 10.8506C9.02289 11.0019 8.77664 11.1208 8.48303 11.2073C8.18942 11.2906 7.86267 11.3246 7.50276 11.3091C7.1176 11.2906 6.76085 11.2042 6.43252 11.0498C6.10734 10.8923 5.8232 10.6731 5.58011 10.3921C5.34017 10.1081 5.15391 9.76534 5.02131 9.36395C4.88871 8.96256 4.82242 8.50714 4.82242 7.99768C4.82242 7.50058 4.89503 7.06214 5.04025 6.68236C5.18548 6.30259 5.37964 5.97839 5.62273 5.70976C5.86898 5.44114 6.1468 5.23119 6.4562 5.07989C6.76559 4.92551 7.08445 4.82671 7.41279 4.78348C7.75375 4.73717 8.07419 4.7418 8.37411 4.79738C8.67403 4.85295 8.92344 4.93786 9.12234 5.0521C9.32439 5.16634 9.45067 5.29139 9.50118 5.42725H9.56748V5.42725C9.56748 5.14077 9.79972 4.90853 10.0862 4.90853H10.2281C10.5929 4.90853 10.8887 5.2043 10.8887 5.56915V9.31764C10.8919 9.54921 10.9487 9.73601 11.0592 9.87804C11.1728 10.0201 11.3307 10.0911 11.5328 10.0911C11.7853 10.0911 11.989 9.99382 12.1436 9.7993C12.3015 9.6017 12.4152 9.29911 12.4846 8.89155C12.5572 8.4809 12.5919 7.956 12.5888 7.31687C12.5919 6.79197 12.5209 6.31648 12.3757 5.89039C12.2336 5.46121 12.0316 5.08452 11.7695 4.76032C11.5075 4.43613 11.1934 4.16596 10.8272 3.94983C10.4641 3.73061 10.06 3.56542 9.61484 3.45426C9.16969 3.34311 8.69455 3.28753 8.18942 3.28753C7.41594 3.28753 6.7356 3.40332 6.14838 3.63489C5.56117 3.86337 5.06867 4.18912 4.67088 4.61212C4.27624 5.03512 3.9779 5.53686 3.77585 6.11733C3.57695 6.69471 3.47751 7.33385 3.47751 8.03474C3.47751 8.78503 3.58169 9.45041 3.79006 10.0309C4.00158 10.6083 4.31097 11.0946 4.71823 11.4898C5.12549 11.885 5.62904 12.1845 6.22889 12.3883C6.83189 12.592 7.52486 12.6939 8.30781 12.6939C8.66772 12.6939 9.01973 12.6662 9.36385 12.6106C9.70797 12.555 10.0174 12.4902 10.292 12.4161V12.4161C10.643 12.3214 11.0255 12.5106 11.1432 12.8545V12.8545C11.249 13.1636 11.1105 13.5069 10.7993 13.6062C10.7162 13.6327 10.6276 13.659 10.5335 13.6851C10.2021 13.7777 9.83583 13.8533 9.43489 13.912C9.0371 13.9707 8.63457 14 8.22731 14ZM7.89582 9.97993C8.29676 9.97993 8.61721 9.90428 8.85714 9.75299C9.09708 9.59861 9.26914 9.37013 9.37332 9.06754C9.47751 8.76496 9.52802 8.38827 9.52486 7.93748C9.52486 7.51756 9.47119 7.17329 9.36385 6.90467C9.25651 6.63605 9.08445 6.4369 8.84767 6.30722C8.61089 6.17754 8.29676 6.1127 7.90529 6.1127C7.5517 6.1127 7.2502 6.19143 7.00079 6.3489C6.75454 6.50637 6.56511 6.72404 6.43252 7.00193C6.30308 7.27673 6.23836 7.59012 6.23836 7.94211C6.23836 8.2941 6.29045 8.62601 6.39463 8.93786C6.50197 9.24662 6.67561 9.49826 6.91555 9.69278C7.15864 9.88421 7.4854 9.97993 7.89582 9.97993Z"/>
</svg>
