<svg width="16" height="16" viewBox="0 0 16 16" fill="#757576" xmlns="http://www.w3.org/2000/svg" stroke-width="0">
    <path d="M4.79998 8.00039C4.79998 8.88405 4.08363 9.60039 3.19998 9.60039C2.31632 9.60039 1.59998 8.88405 1.59998 8.00039C1.59998 7.11674 2.31632 6.40039 3.19998 6.40039C4.08363 6.40039 4.79998 7.11674 4.79998 8.00039Z"/>
    <path d="M9.59998 8.00039C9.59998 8.88405 8.88363 9.60039 7.99998 9.60039C7.11632 9.60039 6.39998 8.88405 6.39998 8.00039C6.39998 7.11674 7.11632 6.40039 7.99998 6.40039C8.88363 6.40039 9.59998 7.11674 9.59998 8.00039Z"/>
    <path d="M14.4 8.00039C14.4 8.88405 13.6836 9.60039 12.8 9.60039C11.9163 9.60039 11.2 8.88405 11.2 8.00039C11.2 7.11674 11.9163 6.40039 12.8 6.40039C13.6836 6.40039 14.4 7.11674 14.4 8.00039Z"/>
</svg>
