<svg viewBox="0 0 24 24" fill="#0A0A0A" stroke-width="0" xmlns="http://www.w3.org/2000/svg">
    <path d="M7.99961 7.20002C6.67413 7.20002 5.59961 6.12551 5.59961 4.80002C5.59961 3.47454 6.67413 2.40002 7.99961 2.40002C9.32509 2.40002 10.3996 3.47454 10.3996 4.80002C10.3996 6.12551 9.32509 7.20002 7.99961 7.20002Z"/>
    <path d="M7.99961 14.4C6.67413 14.4 5.59961 13.3255 5.59961 12C5.59961 10.6745 6.67413 9.60002 7.99961 9.60002C9.32509 9.60002 10.3996 10.6745 10.3996 12C10.3996 13.3255 9.32509 14.4 7.99961 14.4Z"/>
    <path d="M7.99961 21.6C6.67413 21.6 5.59961 20.5255 5.59961 19.2C5.59961 17.8745 6.67413 16.8 7.99961 16.8C9.32509 16.8 10.3996 17.8745 10.3996 19.2C10.3996 20.5255 9.32509 21.6 7.99961 21.6Z"/>
    <path d="M15.9996 7.20002C14.6741 7.20002 13.5996 6.12551 13.5996 4.80002C13.5996 3.47454 14.6741 2.40002 15.9996 2.40002C17.3251 2.40002 18.3996 3.47454 18.3996 4.80002C18.3996 6.12551 17.3251 7.20002 15.9996 7.20002Z"/>
    <path d="M15.9996 14.4C14.6741 14.4 13.5996 13.3255 13.5996 12C13.5996 10.6745 14.6741 9.60002 15.9996 9.60002C17.3251 9.60002 18.3996 10.6745 18.3996 12C18.3996 13.3255 17.3251 14.4 15.9996 14.4Z"/>
    <path d="M15.9996 21.6C14.6741 21.6 13.5996 20.5255 13.5996 19.2C13.5996 17.8745 14.6741 16.8 15.9996 16.8C17.3251 16.8 18.3996 17.8745 18.3996 19.2C18.3996 20.5255 17.3251 21.6 15.9996 21.6Z"/>
</svg>
