<svg width="16" height="16" viewBox="0 0 16 16" fill="#757576" xmlns="http://www.w3.org/2000/svg" stroke-width="0">
    <g clip-path="url(#clip0_565_8970)">
        <path d="M6.07998 6.07961V5.32961C5.66576 5.32961 5.32997 5.6654 5.32997 6.07961H6.07998ZM6.14372 6.07961H6.89372C6.89372 5.6654 6.55794 5.32961 6.14372 5.32961V6.07961ZM9.91998 6.07961V5.32961C9.50576 5.32961 9.16997 5.6654 9.16997 6.07961H9.91998ZM9.97665 6.07961H10.7266C10.7266 5.6654 10.3909 5.32961 9.97665 5.32961V6.07961ZM6.14372 6.13086V6.88086C6.55794 6.88086 6.89372 6.54507 6.89372 6.13086H6.14372ZM6.07998 6.13086H5.32997C5.32997 6.54507 5.66576 6.88086 6.07998 6.88086V6.13086ZM9.97665 6.13086V6.88086C10.3909 6.88086 10.7266 6.54507 10.7266 6.13086H9.97665ZM9.91998 6.13086H9.16997C9.16997 6.54507 9.50576 6.88086 9.91998 6.88086V6.13086ZM6.41899 9.55097C6.20098 9.19877 5.73873 9.08999 5.38653 9.308C5.03433 9.52601 4.92555 9.98826 5.14356 10.3405L6.41899 9.55097ZM10.8564 10.3405C11.0744 9.98826 10.9656 9.52601 10.6134 9.308C10.2612 9.08999 9.79897 9.19877 9.58096 9.55097L10.8564 10.3405ZM13.65 7.99961C13.65 11.12 11.1204 13.6496 7.99997 13.6496V15.1496C11.9488 15.1496 15.15 11.9484 15.15 7.99961H13.65ZM7.99997 13.6496C4.87957 13.6496 2.34998 11.12 2.34998 7.99961H0.849976C0.849976 11.9484 4.05114 15.1496 7.99997 15.1496V13.6496ZM2.34998 7.99961C2.34998 4.8792 4.87957 2.34961 7.99997 2.34961V0.849609C4.05114 0.849609 0.849976 4.05077 0.849976 7.99961H2.34998ZM7.99997 2.34961C11.1204 2.34961 13.65 4.8792 13.65 7.99961H15.15C15.15 4.05077 11.9488 0.849609 7.99997 0.849609V2.34961ZM6.07998 6.82961H6.14372V5.32961H6.07998V6.82961ZM9.91998 6.82961H9.97665V5.32961H9.91998V6.82961ZM5.39372 6.07961V6.13086H6.89372V6.07961H5.39372ZM6.14372 5.38086H6.07998V6.88086H6.14372V5.38086ZM6.82998 6.13086V6.07961H5.32997V6.13086H6.82998ZM9.22665 6.07961V6.13086H10.7266V6.07961H9.22665ZM9.97665 5.38086H9.91998V6.88086H9.97665V5.38086ZM10.67 6.13086V6.07961H9.16997V6.13086H10.67ZM7.99997 10.4496C7.34424 10.4496 6.75825 10.0991 6.41899 9.55097L5.14356 10.3405C5.73755 11.3 6.79017 11.9496 7.99997 11.9496V10.4496ZM9.58096 9.55097C9.2417 10.0991 8.65571 10.4496 7.99997 10.4496V11.9496C9.20978 11.9496 10.2624 11.3 10.8564 10.3405L9.58096 9.55097Z"/>
    </g>
    <defs>
        <clipPath id="clip0_565_8970">
            <rect width="16" height="16"/>
        </clipPath>
    </defs>
</svg>
