<svg viewBox="0 0 24 24" fill="#0A0A0A" stroke-opacity="0" stroke-width="0"
     xmlns="http://www.w3.org/2000/svg">
    <path fill-rule="evenodd" clip-rule="evenodd"
          d="M3.20181 12.1072C3.20243 12.1087 3.20305 12.1101 3.20368 12.1116C3.27291 12.2754 3.38146 12.5149 3.5344 12.8051C3.84098 13.3869 4.32169 14.1645 5.01495 14.944C6.3932 16.4936 8.6064 18.05 12.013 18.1057C15.4034 18.1612 17.6059 16.6138 18.9821 15.0387C19.6747 14.2461 20.1556 13.4473 20.4628 12.8469C20.616 12.5474 20.7248 12.2995 20.7943 12.1295C20.7968 12.1236 20.7991 12.1178 20.8015 12.1121C20.7988 12.1052 20.7961 12.0983 20.7934 12.0912C20.7259 11.9178 20.62 11.665 20.4701 11.3592C20.1694 10.746 19.6962 9.92914 19.0085 9.1149C17.6419 7.49696 15.4373 5.89288 12.0007 5.89288C8.56414 5.89288 6.35946 7.49696 4.99289 9.1149C4.30515 9.92914 3.83198 10.746 3.53132 11.3592C3.38138 11.665 3.27546 11.9178 3.20801 12.0912C3.2059 12.0966 3.20384 12.1019 3.20181 12.1072ZM21.6007 12.119C22.3164 11.8949 22.3163 11.8945 22.3162 11.8941L22.3159 11.8932L22.3152 11.8909L22.3131 11.8843L22.3064 11.8638C22.3007 11.8468 22.2928 11.8233 22.2826 11.7938C22.262 11.7348 22.2318 11.6514 22.1913 11.5473C22.1103 11.3392 21.9876 11.047 21.8169 10.6988C21.4762 10.004 20.9398 9.07679 20.1544 8.147C18.5748 6.27687 15.9795 4.39288 12.0007 4.39288C8.02187 4.39288 5.42654 6.27687 3.84696 8.147C3.06162 9.07679 2.52518 10.004 2.1845 10.6988C2.01377 11.047 1.89107 11.3392 1.81009 11.5473C1.76957 11.6514 1.73941 11.7348 1.71884 11.7938C1.70854 11.8233 1.70064 11.8468 1.69503 11.8638L1.68832 11.8843L1.68623 11.8909L1.6855 11.8932L1.68521 11.8941C1.68508 11.8945 1.68497 11.8949 2.4007 12.119L1.68497 11.8949L1.61133 12.13L1.69151 12.363L2.4007 12.119C1.69151 12.363 1.69164 12.3634 1.69177 12.3638L1.69209 12.3647L1.69288 12.367L1.69511 12.3734L1.7022 12.3932C1.70811 12.4095 1.7164 12.432 1.72715 12.4602C1.74864 12.5167 1.78002 12.5962 1.822 12.6955C1.90589 12.894 2.03243 13.1724 2.20738 13.5044C2.55657 14.167 3.10277 15.0511 3.89413 15.9408C5.48511 17.7296 8.07192 19.5415 11.9884 19.6055C15.9211 19.6698 18.5186 17.8489 20.1116 16.0257C20.9036 15.1193 21.4496 14.2114 21.7982 13.53C21.9729 13.1886 22.0991 12.9017 22.1828 12.6972C22.2246 12.5949 22.2558 12.513 22.2772 12.4549C22.2879 12.4259 22.2961 12.4028 22.302 12.3861L22.309 12.3658L22.3111 12.3593L22.3119 12.357L22.3122 12.3561C22.3124 12.3557 22.3125 12.3554 21.6007 12.119ZM21.6007 12.119L22.3125 12.3554L22.3887 12.1258L22.3164 11.8949L21.6007 12.119ZM12.0007 10.4438C11.07 10.4438 10.3507 11.1728 10.3507 12.0292C10.3507 12.8856 11.07 13.6145 12.0007 13.6145C12.9314 13.6145 13.6507 12.8856 13.6507 12.0292C13.6507 11.1728 12.9314 10.4438 12.0007 10.4438ZM8.8507 12.0292C8.8507 10.306 10.2804 8.94383 12.0007 8.94383C13.721 8.94383 15.1507 10.306 15.1507 12.0292C15.1507 13.7524 13.721 15.1145 12.0007 15.1145C10.2804 15.1145 8.8507 13.7524 8.8507 12.0292Z"/>
</svg>
