<svg width="16" height="16" viewBox="0 0 16 16" fill="none" fill-opacity="0" stroke="#757576" stroke-width="1.5"
     stroke-linecap="round"
     stroke-linejoin="round" xmlns="http://www.w3.org/2000/svg">
    <path d="M13.5875 7.25L12.5 6.16325V3.5C12.5 3.0875 12.1625 2.75 11.75 2.75H11C10.5875 2.75 10.25 3.0875 10.25 3.5V3.91475L8.75 2.41625C8.54525 2.22275 8.35775 2 8 2C7.64225 2 7.45475 2.22275 7.25 2.41625L2.4125 7.25C2.1785 7.49375 2 7.6715 2 8C2 8.42225 2.324 8.75 2.75 8.75H3.5V13.25C3.5 13.6625 3.8375 14 4.25 14H5.75C6.16421 14 6.5 13.6642 6.5 13.25V10.25C6.5 9.8375 6.8375 9.5 7.25 9.5H8.75C9.1625 9.5 9.5 9.8375 9.5 10.25V13.25C9.5 13.6642 9.46079 14 9.875 14H11.75C12.1625 14 12.5 13.6625 12.5 13.25V8.75H13.25C13.676 8.75 14 8.42225 14 8C14 7.6715 13.8215 7.49375 13.5875 7.25Z"
    />
</svg>
