<svg width="16" height="16" viewBox="0 0 16 16" fill="none" fill-opacity="0" xmlns="http://www.w3.org/2000/svg"
     stroke="#959596"
     stroke-width="1.5" stroke-linecap="round" stroke-linejoin="round">
    <path d="M9.76471 5.20039V3.80039C9.76471 3.42909 9.61597 3.07299 9.35121 2.81044C9.08645 2.54789 8.72736 2.40039 8.35294 2.40039H3.41176C3.03734 2.40039 2.67825 2.54789 2.4135 2.81044C2.14874 3.07299 2 3.42909 2 3.80039V12.2004C2 12.5717 2.14874 12.9278 2.4135 13.1903C2.67825 13.4529 3.03734 13.6004 3.41176 13.6004H8.35294C8.72736 13.6004 9.08645 13.4529 9.35121 13.1903C9.61597 12.9278 9.76471 12.5717 9.76471 12.2004V10.8004M5.52941 8.00039H14M14 8.00039L11.8824 5.90039M14 8.00039L11.8824 10.1004"/>
</svg>
