<svg width="16" height="16" viewBox="0 0 16 16" fill="#757576" xmlns="http://www.w3.org/2000/svg" stroke-width="0">
    <path d="M3.06773 10.984L2.45221 10.5554H2.45221L3.06773 10.984ZM3.79445 8.73558L3.04445 8.72717V8.73558H3.79445ZM3.80971 7.3762L4.55971 7.38461V7.3762H3.80971ZM12.9378 10.9949L13.5615 10.5784L13.5615 10.5784L12.9378 10.9949ZM12.2384 8.73558L11.4884 8.72673V8.73558H12.2384ZM12.2536 7.44356L13.0036 7.45242V7.44356H12.2536ZM6.80128 12.8475C6.47708 12.5897 6.00526 12.6435 5.74745 12.9677C5.48963 13.2919 5.54344 13.7637 5.86764 14.0215L6.80128 12.8475ZM10.134 14.0215C10.4582 13.7637 10.512 13.2919 10.2542 12.9677C9.99635 12.6435 9.52454 12.5897 9.20034 12.8475L10.134 14.0215ZM1.96568 3.98633C1.81851 4.37352 2.01309 4.8067 2.40027 4.95387C2.78746 5.10104 3.22064 4.90647 3.36781 4.51928L1.96568 3.98633ZM4.91474 2.6521C5.27488 2.44749 5.40096 1.98965 5.19635 1.62951C4.99173 1.26936 4.5339 1.14328 4.17376 1.3479L4.91474 2.6521ZM11.8203 1.35807C11.4624 1.14953 11.0032 1.2706 10.7947 1.62849C10.5861 1.98638 10.7072 2.44556 11.0651 2.6541L11.8203 1.35807ZM12.6296 4.50594C12.7728 4.89462 13.204 5.09363 13.5927 4.95044C13.9814 4.80726 14.1804 4.3761 14.0372 3.98742L12.6296 4.50594ZM3.68325 11.4125C4.11536 10.7918 4.54445 9.86588 4.54445 8.73558H3.04445C3.04445 9.48159 2.7597 10.1138 2.45221 10.5554L3.68325 11.4125ZM4.54441 8.744L4.55966 7.38461L3.05975 7.36778L3.0445 8.72717L4.54441 8.744ZM13.5615 10.5784C13.2668 10.137 12.9884 9.49637 12.9884 8.73558H11.4884C11.4884 9.86398 11.8992 10.79 12.314 11.4113L13.5615 10.5784ZM12.9883 8.74444L13.0036 7.45241L11.5037 7.43471L11.4884 8.72673L12.9883 8.74444ZM13.0036 7.44356C13.0036 4.52942 10.824 2.0531 8.00081 2.0531V3.5531C9.87513 3.5531 11.5036 5.232 11.5036 7.44356H13.0036ZM12.6833 12.3749C13.2435 12.3749 13.5533 11.9529 13.6642 11.6685C13.7793 11.3737 13.8073 10.9466 13.5615 10.5784L12.314 11.4113C12.2214 11.2726 12.2523 11.1605 12.2668 11.1233C12.2782 11.0942 12.305 11.0418 12.3664 10.9891C12.4336 10.9316 12.5439 10.8749 12.6833 10.8749V12.3749ZM4.55971 7.3762C4.55971 5.20184 6.16058 3.5531 8.00081 3.5531V2.0531C5.21167 2.0531 3.05971 4.49926 3.05971 7.3762H4.55971ZM3.31897 10.8749C3.46121 10.8749 3.57267 10.9337 3.63933 10.9919C3.70016 11.045 3.72573 11.097 3.73626 11.1249C3.74745 11.1544 3.75375 11.188 3.7512 11.2282C3.74861 11.2689 3.73502 11.3381 3.68326 11.4125L2.45221 10.5554C2.19481 10.9252 2.22125 11.3595 2.33332 11.6557C2.44098 11.9402 2.74955 12.3749 3.31897 12.3749V10.8749ZM12.6833 10.8749H3.31897V12.3749H12.6833V10.8749ZM8.00081 13.25C7.52751 13.25 7.1087 13.092 6.80128 12.8475L5.86764 14.0215C6.44465 14.4804 7.19376 14.75 8.00081 14.75V13.25ZM9.20034 12.8475C8.89292 13.092 8.47411 13.25 8.00081 13.25V14.75C8.80786 14.75 9.55697 14.4804 10.134 14.0215L9.20034 12.8475ZM3.36781 4.51928C3.67747 3.70461 4.22413 3.04447 4.91474 2.6521L4.17376 1.3479C3.14903 1.93009 2.38614 2.88015 1.96568 3.98633L3.36781 4.51928ZM11.0651 2.6541C11.7812 3.07137 12.3403 3.72046 12.6296 4.50594L14.0372 3.98742C13.623 2.86305 12.8266 1.94441 11.8203 1.35807L11.0651 2.6541Z"
    />
</svg>
