<svg width="16" height="16" viewBox="0 0 16 16" fill="none" fill-opacity="0" stroke="#757576" stroke-width="1.5"
     stroke-linecap="round"
     xmlns="http://www.w3.org/2000/svg">
    <path d="M12.8001 9.12402C13.645 9.75529 14.4001 11.3447 14.4001 12.324C14.4001 12.6291 14.1775 12.8764 13.9029 12.8764H13.6001M10.4001 6.53654C10.9467 6.22037 11.3144 5.62942 11.3144 4.9526C11.3144 4.27577 10.9467 3.68482 10.4001 3.36865M2.09728 12.8764H10.8553C11.1299 12.8764 11.3525 12.6291 11.3525 12.324C11.3525 10.4062 9.7503 8.85161 6.47629 8.85161C3.20227 8.85161 1.6001 10.4062 1.6001 12.324C1.6001 12.6291 1.82269 12.8764 2.09728 12.8764ZM8.30486 4.95259C8.30486 5.96249 7.48618 6.78117 6.47629 6.78117C5.4664 6.78117 4.64772 5.96249 4.64772 4.95259C4.64772 3.9427 5.4664 3.12402 6.47629 3.12402C7.48618 3.12402 8.30486 3.9427 8.30486 4.95259Z"
    />
</svg>
