<svg width="16" height="16" viewBox="0 0 16 16" fill="#959596" stroke-width="0" xmlns="http://www.w3.org/2000/svg">
    <path d="M10.3992 8.53923L9.99005 7.91068L9.9796 7.91749L9.96938 7.92463L10.3992 8.53923ZM10.3992 7.62178L9.95452 8.22571L9.98798 8.25035L10.024 8.27114L10.3992 7.62178ZM6.72229 4.91425L7.167 4.31032L7.14584 4.29474L7.12364 4.28067L6.72229 4.91425ZM5.95144 5.31866L6.70156 5.31648L6.70129 5.30335L5.95144 5.31866ZM5.96686 10.6371L5.21687 10.6393L5.21693 10.6605L5.21819 10.6817L5.96686 10.6371ZM6.76597 11.0803L7.12914 11.7365L7.16357 11.7175L7.19582 11.6949L6.76597 11.0803ZM3.99961 2.34961H11.9996V0.849609H3.99961V2.34961ZM13.6496 3.99961V11.9996H15.1496V3.99961H13.6496ZM11.9996 13.6496H3.99961V15.1496H11.9996V13.6496ZM2.34961 11.9996V3.99961H0.849609V11.9996H2.34961ZM3.99961 13.6496C3.08834 13.6496 2.34961 12.9109 2.34961 11.9996H0.849609C0.849609 13.7393 2.25991 15.1496 3.99961 15.1496V13.6496ZM13.6496 11.9996C13.6496 12.9109 12.9109 13.6496 11.9996 13.6496V15.1496C13.7393 15.1496 15.1496 13.7393 15.1496 11.9996H13.6496ZM11.9996 2.34961C12.9109 2.34961 13.6496 3.08834 13.6496 3.99961H15.1496C15.1496 2.25991 13.7393 0.849609 11.9996 0.849609V2.34961ZM3.99961 0.849609C2.25991 0.849609 0.849609 2.25991 0.849609 3.99961H2.34961C2.34961 3.08834 3.08834 2.34961 3.99961 2.34961V0.849609ZM10.8084 9.16778C11.1048 8.97483 11.502 8.61675 11.5012 8.06622C11.5005 7.49888 11.0823 7.15027 10.7745 6.97241L10.024 8.27114C10.0878 8.30804 10.0913 8.32263 10.073 8.29935C10.0495 8.26936 10.0014 8.18859 10.0013 8.06827C10.0011 7.9507 10.0468 7.87731 10.0607 7.85854C10.0712 7.84434 10.0592 7.86569 9.99005 7.91068L10.8084 9.16778ZM10.8439 7.01784L7.167 4.31032L6.27758 5.51819L9.95452 8.22571L10.8439 7.01784ZM7.12364 4.28067C6.7945 4.07218 6.32325 3.94718 5.87278 4.15751C5.38089 4.38718 5.19234 4.88016 5.2016 5.33396L6.70129 5.30335C6.70071 5.27517 6.70697 5.30228 6.67865 5.35646C6.64741 5.41624 6.58902 5.47854 6.50739 5.51665C6.34963 5.59031 6.26894 5.51489 6.32095 5.54783L7.12364 4.28067ZM5.20145 5.32083L5.21687 10.6393L6.71686 10.635L6.70144 5.31648L5.20145 5.32083ZM5.21819 10.6817C5.24001 11.0483 5.36862 11.5608 5.85411 11.82C6.33185 12.0752 6.82333 11.9058 7.12914 11.7365L6.40281 10.4241C6.34274 10.4574 6.32664 10.4549 6.3501 10.4517C6.37956 10.4476 6.46313 10.4448 6.56075 10.4969C6.65963 10.5497 6.70568 10.623 6.72024 10.654C6.73158 10.6781 6.71993 10.6664 6.71554 10.5926L5.21819 10.6817ZM7.19582 11.6949L10.8291 9.15383L9.96938 7.92463L6.33612 10.4657L7.19582 11.6949Z"/>
</svg>
