<svg width="16" height="16" viewBox="0 0 16 16" fill="#757576" xmlns="http://www.w3.org/2000/svg" stroke-width="0">
    <path d="M13.1326 8.49299C13.2711 8.10262 13.067 7.67388 12.6766 7.53536C12.2862 7.39684 11.8575 7.60101 11.719 7.99138L13.1326 8.49299ZM11.0702 12.0626L11.777 12.3134L11.0702 12.0626ZM10.1559 12.8542L10.303 13.5897H10.303L10.1559 12.8542ZM2.17505 14.4504L1.43695 14.3173C1.3929 14.5616 1.47258 14.8119 1.64978 14.9857C1.82697 15.1596 2.07871 15.2345 2.32214 15.1858L2.17505 14.4504ZM3.63146 6.3739L4.36956 6.507L3.63146 6.3739ZM4.47169 5.422L4.69539 6.13786H4.69539L4.47169 5.422ZM8.60696 4.91549C9.00232 4.79194 9.22266 4.37128 9.09911 3.97593C8.97556 3.58057 8.5549 3.36022 8.15955 3.48377L8.60696 4.91549ZM1.7891 13.7757C1.4962 14.0686 1.4962 14.5434 1.7891 14.8363C2.08199 15.1292 2.55686 15.1292 2.84976 14.8363L1.7891 13.7757ZM6.3148 11.3713C6.60769 11.0784 6.60769 10.6035 6.3148 10.3106C6.02191 10.0177 5.54703 10.0177 5.25414 10.3106L6.3148 11.3713ZM14.7358 5.35465L15.2662 4.82432L14.7358 5.35465ZM14.7358 6.50966L14.2055 5.97933L14.7358 6.50966ZM10.1158 1.8896L9.58544 1.35927V1.35927L10.1158 1.8896ZM11.2708 1.8896L10.7405 2.41993V2.41993L11.2708 1.8896ZM8.67201 4.48839L9.20234 3.95806L8.67201 4.48839ZM8.67201 3.33337L9.20234 3.8637V3.8637L8.67201 3.33337ZM12.137 7.95343L11.6067 8.48376L12.137 7.95343ZM13.2921 7.95343L13.8224 8.48376H13.8224L13.2921 7.95343ZM11.719 7.99138L10.3633 11.8118L11.777 12.3134L13.1326 8.49299L11.719 7.99138ZM10.0088 12.1188L2.02796 13.715L2.32214 15.1858L10.303 13.5897L10.0088 12.1188ZM2.91314 14.5835L4.36956 6.507L2.89337 6.2408L1.43695 14.3173L2.91314 14.5835ZM4.69539 6.13786L8.60696 4.91549L8.15955 3.48377L4.24798 4.70614L4.69539 6.13786ZM4.36956 6.507C4.40096 6.33288 4.52652 6.19063 4.69539 6.13786L4.24798 4.70614C3.5459 4.92554 3.02391 5.51691 2.89337 6.2408L4.36956 6.507ZM10.3633 11.8118C10.3074 11.9694 10.1728 12.086 10.0088 12.1188L10.303 13.5897C10.9847 13.4533 11.5445 12.9686 11.777 12.3134L10.3633 11.8118ZM2.84976 14.8363L6.3148 11.3713L5.25414 10.3106L1.7891 13.7757L2.84976 14.8363ZM12.6674 7.4231L9.20234 3.95806L8.14168 5.01872L11.6067 8.48376L12.6674 7.4231ZM9.20234 3.8637L10.6461 2.41993L9.58544 1.35927L8.14167 2.80304L9.20234 3.8637ZM10.7405 2.41993L14.2055 5.88498L15.2662 4.82432L11.8011 1.35927L10.7405 2.41993ZM14.2055 5.97933L12.7617 7.4231L13.8224 8.48376L15.2662 7.03999L14.2055 5.97933ZM14.2055 5.88498C14.2316 5.91103 14.2316 5.95328 14.2055 5.97933L15.2662 7.03999C15.878 6.42815 15.878 5.43616 15.2662 4.82432L14.2055 5.88498ZM10.6461 2.41993C10.6722 2.39388 10.7144 2.39388 10.7405 2.41993L11.8011 1.35927C11.1893 0.74743 10.1973 0.747431 9.58544 1.35927L10.6461 2.41993ZM9.20234 3.95806C9.17628 3.932 9.17628 3.88976 9.20234 3.8637L8.14167 2.80304C7.52983 3.41488 7.52983 4.40687 8.14168 5.01872L9.20234 3.95806ZM11.6067 8.48376C12.2186 9.0956 13.2106 9.0956 13.8224 8.48376L12.7617 7.4231C12.7357 7.44915 12.6934 7.44915 12.6674 7.4231L11.6067 8.48376ZM6.60355 8.77251C6.94856 8.42751 7.50792 8.42751 7.85292 8.77251L8.91358 7.71185C7.98279 6.78106 6.47368 6.78106 5.54289 7.71185L6.60355 8.77251ZM7.85292 8.77251C8.19793 9.11752 8.19793 9.67688 7.85292 10.0219L8.91358 11.0825C9.84437 10.1518 9.84437 8.64264 8.91358 7.71185L7.85292 8.77251ZM7.85292 10.0219C7.50792 10.3669 6.94856 10.3669 6.60355 10.0219L5.54289 11.0825C6.47368 12.0133 7.98279 12.0133 8.91358 11.0825L7.85292 10.0219ZM6.60355 10.0219C6.25855 9.67688 6.25855 9.11752 6.60355 8.77251L5.54289 7.71185C4.6121 8.64264 4.6121 10.1518 5.54289 11.0825L6.60355 10.0219Z"
    />
</svg>
