<svg width="16" height="17" viewBox="0 0 16 17" fill="#757576" xmlns="http://www.w3.org/2000/svg" stroke-width="0">
    <path d="M6.74961 2.09961C6.74961 1.6854 6.41382 1.34961 5.99961 1.34961C5.5854 1.34961 5.24961 1.6854 5.24961 2.09961H6.74961ZM5.24961 14.8996C5.24961 15.3138 5.5854 15.6496 5.99961 15.6496C6.41382 15.6496 6.74961 15.3138 6.74961 14.8996H5.24961ZM3.99961 2.84961H11.9996V1.34961H3.99961V2.84961ZM13.6496 4.49961V12.4996H15.1496V4.49961H13.6496ZM11.9996 14.1496H3.99961V15.6496H11.9996V14.1496ZM2.34961 12.4996V4.49961H0.849609V12.4996H2.34961ZM3.99961 14.1496C3.08834 14.1496 2.34961 13.4109 2.34961 12.4996H0.849609C0.849609 14.2393 2.25991 15.6496 3.99961 15.6496V14.1496ZM13.6496 12.4996C13.6496 13.4109 12.9109 14.1496 11.9996 14.1496V15.6496C13.7393 15.6496 15.1496 14.2393 15.1496 12.4996H13.6496ZM11.9996 2.84961C12.9109 2.84961 13.6496 3.58834 13.6496 4.49961H15.1496C15.1496 2.75991 13.7393 1.34961 11.9996 1.34961V2.84961ZM3.99961 1.34961C2.25991 1.34961 0.849609 2.75991 0.849609 4.49961H2.34961C2.34961 3.58834 3.08834 2.84961 3.99961 2.84961V1.34961ZM5.24961 2.09961V14.8996H6.74961V2.09961H5.24961ZM1.99961 7.24961H13.9996V5.74961H1.99961V7.24961Z"/>
</svg>
