<svg width="16" height="16" viewBox="0 0 16 16" fill="none" fill-opacity="0" xmlns="http://www.w3.org/2000/svg"
     stroke="#0A0A0A"
     stroke-width="1.5" stroke-linecap="round" stroke-linejoin="round">
    <path d="M4.98129 6.85559L3.49232 8.34456C2.93623 8.90065 2.61644 9.6573 2.62229 10.4525C2.62813 11.2477 2.94092 12.009 3.5234 12.5735C4.08785 13.156 4.84927 13.4687 5.64435 13.4746C6.45757 13.4805 7.19631 13.1788 7.75243 12.6227L9.2414 11.1337M11.1433 9.26821L12.6322 7.77924C13.1883 7.22315 13.5081 6.46651 13.5023 5.6713C13.4964 4.87609 13.1836 4.11483 12.6012 3.55034C12.0368 2.98602 11.2756 2.67321 10.4803 2.66737C9.68513 2.66152 8.92839 2.96316 8.37227 3.51926L6.8833 5.00823M5.80435 10.28L10.2713 5.8131M3.55806 3.47823L2.82052 2.74069M6.11906 2.17906L6.23972 0.963379M1.14844 6.05444L2.40888 5.92934M12.6278 12.3373L13.3654 13.0748M10.0668 13.6365L9.94616 14.8522M15.0374 9.7611L13.777 9.8862"/>
</svg>
